<svg viewBox="0 0 900 600" xmlns="http://www.w3.org/2000/svg">
  <rect width="900" height="600" fill="#00247D"/>
  <!-- Union Jack top-left -->
  <line x1="0" y1="0" x2="450" y2="300" stroke="#FFFFFF" stroke-width="60"/>
  <line x1="450" y1="0" x2="0" y2="300" stroke="#FFFFFF" stroke-width="60"/>
  <line x1="0" y1="0" x2="450" y2="300" stroke="#CF142B" stroke-width="36"/>
  <line x1="450" y1="0" x2="0" y2="300" stroke="#CF142B" stroke-width="36"/>
  <rect x="180" width="90" height="300" fill="#FFFFFF"/>
  <rect y="105" width="450" height="90" fill="#FFFFFF"/>
  <rect x="195" width="60" height="300" fill="#CF142B"/>
  <rect y="120" width="450" height="60" fill="#CF142B"/>
  <!-- Southern Cross (4 red stars with white border) -->
  <polygon fill="#FFFFFF" transform="translate(640,155)" points="0,-30 7,-19 19,-19 9.5,-11 13,1 0,-7 -13,1 -9.5,-11 -19,-19 -7,-19"/>
  <polygon fill="#CC0000" transform="translate(640,155)" points="0,-22 5,-14 14,-14 7,-8 10,1 0,-5 -10,1 -7,-8 -14,-14 -5,-14"/>
  <polygon fill="#FFFFFF" transform="translate(760,250)" points="0,-30 7,-19 19,-19 9.5,-11 13,1 0,-7 -13,1 -9.5,-11 -19,-19 -7,-19"/>
  <polygon fill="#CC0000" transform="translate(760,250)" points="0,-22 5,-14 14,-14 7,-8 10,1 0,-5 -10,1 -7,-8 -14,-14 -5,-14"/>
  <polygon fill="#FFFFFF" transform="translate(660,380)" points="0,-30 7,-19 19,-19 9.5,-11 13,1 0,-7 -13,1 -9.5,-11 -19,-19 -7,-19"/>
  <polygon fill="#CC0000" transform="translate(660,380)" points="0,-22 5,-14 14,-14 7,-8 10,1 0,-5 -10,1 -7,-8 -14,-14 -5,-14"/>
  <polygon fill="#FFFFFF" transform="translate(780,460)" points="0,-24 5.5,-15.2 15.2,-15.2 7.6,-8.8 10.4,0.8 0,-4 -10.4,0.8 -7.6,-8.8 -15.2,-15.2 -5.5,-15.2"/>
  <polygon fill="#CC0000" transform="translate(780,460)" points="0,-17 4,-10.5 10.5,-10.5 5.5,-6 7.5,0.5 0,-3 -7.5,0.5 -5.5,-6 -10.5,-10.5 -4,-10.5"/>
</svg>
