<svg viewBox="0 0 900 600" xmlns="http://www.w3.org/2000/svg">
  <rect width="900" height="600" fill="#003893"/>
  <!-- White stripe -->
  <rect y="370" width="900" height="30" fill="#FFFFFF"/>
  <!-- Red stripe -->
  <rect y="400" width="900" height="60" fill="#CF2027"/>
  <!-- White stripe -->
  <rect y="460" width="900" height="30" fill="#FFFFFF"/>
  <!-- 10 yellow stars in circle around stripe area -->
  <g fill="#F7D116">
    <polygon transform="translate(280,420)" points="0,-20 4.7,-14.5 15.2,-14.5 7.7,-5.5 10.4,5.9 0,-4.3 -10.4,5.9 -7.7,-5.5 -15.2,-14.5 -4.7,-14.5"/>
    <polygon transform="translate(320,394)" points="0,-20 4.7,-14.5 15.2,-14.5 7.7,-5.5 10.4,5.9 0,-4.3 -10.4,5.9 -7.7,-5.5 -15.2,-14.5 -4.7,-14.5"/>
    <polygon transform="translate(370,378)" points="0,-20 4.7,-14.5 15.2,-14.5 7.7,-5.5 10.4,5.9 0,-4.3 -10.4,5.9 -7.7,-5.5 -15.2,-14.5 -4.7,-14.5"/>
    <polygon transform="translate(420,375)" points="0,-20 4.7,-14.5 15.2,-14.5 7.7,-5.5 10.4,5.9 0,-4.3 -10.4,5.9 -7.7,-5.5 -15.2,-14.5 -4.7,-14.5"/>
    <polygon transform="translate(470,385)" points="0,-20 4.7,-14.5 15.2,-14.5 7.7,-5.5 10.4,5.9 0,-4.3 -10.4,5.9 -7.7,-5.5 -15.2,-14.5 -4.7,-14.5"/>
    <polygon transform="translate(510,408)" points="0,-20 4.7,-14.5 15.2,-14.5 7.7,-5.5 10.4,5.9 0,-4.3 -10.4,5.9 -7.7,-5.5 -15.2,-14.5 -4.7,-14.5"/>
    <polygon transform="translate(510,448)" points="0,-20 4.7,-14.5 15.2,-14.5 7.7,-5.5 10.4,5.9 0,-4.3 -10.4,5.9 -7.7,-5.5 -15.2,-14.5 -4.7,-14.5"/>
    <polygon transform="translate(470,468)" points="0,-20 4.7,-14.5 15.2,-14.5 7.7,-5.5 10.4,5.9 0,-4.3 -10.4,5.9 -7.7,-5.5 -15.2,-14.5 -4.7,-14.5"/>
    <polygon transform="translate(320,456)" points="0,-20 4.7,-14.5 15.2,-14.5 7.7,-5.5 10.4,5.9 0,-4.3 -10.4,5.9 -7.7,-5.5 -15.2,-14.5 -4.7,-14.5"/>
    <polygon transform="translate(280,442)" points="0,-20 4.7,-14.5 15.2,-14.5 7.7,-5.5 10.4,5.9 0,-4.3 -10.4,5.9 -7.7,-5.5 -15.2,-14.5 -4.7,-14.5"/>
  </g>
</svg>
