<svg width="900" height="600" viewBox="0 0 900 600" xmlns="http://www.w3.org/2000/svg">
  <rect width="900" height="200" fill="#74ACDF"/>
  <rect y="200" width="900" height="200" fill="#FFFFFF"/>
  <rect y="400" width="900" height="200" fill="#74ACDF"/>
  <!-- Sun of May (simplified) -->
  <circle cx="450" cy="300" r="55" fill="#F6B40E"/>
  <circle cx="450" cy="300" r="38" fill="#F6B40E" stroke="#85340A" stroke-width="2"/>
  <!-- Sun rays -->
  <g fill="#F6B40E" stroke="#85340A" stroke-width="1.5">
    <rect x="446" y="228" width="8" height="28" rx="3"/>
    <rect x="446" y="344" width="8" height="28" rx="3"/>
    <rect x="378" y="296" width="28" height="8" rx="3"/>
    <rect x="494" y="296" width="28" height="8" rx="3"/>
    <rect x="397" y="247" width="8" height="28" rx="3" transform="rotate(45 401 261)"/>
    <rect x="495" y="247" width="8" height="28" rx="3" transform="rotate(-45 499 261)"/>
    <rect x="397" y="325" width="8" height="28" rx="3" transform="rotate(-45 401 339)"/>
    <rect x="495" y="325" width="8" height="28" rx="3" transform="rotate(45 499 339)"/>
  </g>
  <!-- Face -->
  <circle cx="450" cy="300" r="28" fill="#F6B40E" stroke="#85340A" stroke-width="2"/>
  <circle cx="441" cy="295" r="3" fill="#85340A"/>
  <circle cx="459" cy="295" r="3" fill="#85340A"/>
  <path d="M441,308 Q450,316 459,308" stroke="#85340A" stroke-width="2" fill="none"/>
</svg>
