<svg width="900" height="600" viewBox="0 0 900 600" xmlns="http://www.w3.org/2000/svg">
  <rect width="900" height="600" fill="#FFFFFF"/>
  <rect y="0"   width="900" height="46" fill="#B22234"/>
  <rect y="92"  width="900" height="46" fill="#B22234"/>
  <rect y="185" width="900" height="46" fill="#B22234"/>
  <rect y="277" width="900" height="46" fill="#B22234"/>
  <rect y="369" width="900" height="46" fill="#B22234"/>
  <rect y="462" width="900" height="46" fill="#B22234"/>
  <rect y="554" width="900" height="46" fill="#B22234"/>
  <rect width="360" height="323" fill="#3C3B6E"/>
  <g fill="#FFFFFF">
    <polygon transform="translate(40,32)"  points="0,-12 2.8,-8.7 7.2,-9.7 4.5,-6 7.2,-2.3 2.8,-3.3 0,0 -2.8,-3.3 -7.2,-2.3 -4.5,-6 -7.2,-9.7 -2.8,-8.7"/>
    <polygon transform="translate(120,32)" points="0,-12 2.8,-8.7 7.2,-9.7 4.5,-6 7.2,-2.3 2.8,-3.3 0,0 -2.8,-3.3 -7.2,-2.3 -4.5,-6 -7.2,-9.7 -2.8,-8.7"/>
    <polygon transform="translate(200,32)" points="0,-12 2.8,-8.7 7.2,-9.7 4.5,-6 7.2,-2.3 2.8,-3.3 0,0 -2.8,-3.3 -7.2,-2.3 -4.5,-6 -7.2,-9.7 -2.8,-8.7"/>
    <polygon transform="translate(280,32)" points="0,-12 2.8,-8.7 7.2,-9.7 4.5,-6 7.2,-2.3 2.8,-3.3 0,0 -2.8,-3.3 -7.2,-2.3 -4.5,-6 -7.2,-9.7 -2.8,-8.7"/>
    <polygon transform="translate(80,72)"  points="0,-12 2.8,-8.7 7.2,-9.7 4.5,-6 7.2,-2.3 2.8,-3.3 0,0 -2.8,-3.3 -7.2,-2.3 -4.5,-6 -7.2,-9.7 -2.8,-8.7"/>
    <polygon transform="translate(160,72)" points="0,-12 2.8,-8.7 7.2,-9.7 4.5,-6 7.2,-2.3 2.8,-3.3 0,0 -2.8,-3.3 -7.2,-2.3 -4.5,-6 -7.2,-9.7 -2.8,-8.7"/>
    <polygon transform="translate(240,72)" points="0,-12 2.8,-8.7 7.2,-9.7 4.5,-6 7.2,-2.3 2.8,-3.3 0,0 -2.8,-3.3 -7.2,-2.3 -4.5,-6 -7.2,-9.7 -2.8,-8.7"/>
    <polygon transform="translate(320,72)" points="0,-12 2.8,-8.7 7.2,-9.7 4.5,-6 7.2,-2.3 2.8,-3.3 0,0 -2.8,-3.3 -7.2,-2.3 -4.5,-6 -7.2,-9.7 -2.8,-8.7"/>
    <polygon transform="translate(40,112)" points="0,-12 2.8,-8.7 7.2,-9.7 4.5,-6 7.2,-2.3 2.8,-3.3 0,0 -2.8,-3.3 -7.2,-2.3 -4.5,-6 -7.2,-9.7 -2.8,-8.7"/>
    <polygon transform="translate(120,112)"points="0,-12 2.8,-8.7 7.2,-9.7 4.5,-6 7.2,-2.3 2.8,-3.3 0,0 -2.8,-3.3 -7.2,-2.3 -4.5,-6 -7.2,-9.7 -2.8,-8.7"/>
    <polygon transform="translate(200,112)"points="0,-12 2.8,-8.7 7.2,-9.7 4.5,-6 7.2,-2.3 2.8,-3.3 0,0 -2.8,-3.3 -7.2,-2.3 -4.5,-6 -7.2,-9.7 -2.8,-8.7"/>
    <polygon transform="translate(280,112)"points="0,-12 2.8,-8.7 7.2,-9.7 4.5,-6 7.2,-2.3 2.8,-3.3 0,0 -2.8,-3.3 -7.2,-2.3 -4.5,-6 -7.2,-9.7 -2.8,-8.7"/>
    <polygon transform="translate(80,152)" points="0,-12 2.8,-8.7 7.2,-9.7 4.5,-6 7.2,-2.3 2.8,-3.3 0,0 -2.8,-3.3 -7.2,-2.3 -4.5,-6 -7.2,-9.7 -2.8,-8.7"/>
    <polygon transform="translate(160,152)"points="0,-12 2.8,-8.7 7.2,-9.7 4.5,-6 7.2,-2.3 2.8,-3.3 0,0 -2.8,-3.3 -7.2,-2.3 -4.5,-6 -7.2,-9.7 -2.8,-8.7"/>
    <polygon transform="translate(240,152)"points="0,-12 2.8,-8.7 7.2,-9.7 4.5,-6 7.2,-2.3 2.8,-3.3 0,0 -2.8,-3.3 -7.2,-2.3 -4.5,-6 -7.2,-9.7 -2.8,-8.7"/>
    <polygon transform="translate(320,152)"points="0,-12 2.8,-8.7 7.2,-9.7 4.5,-6 7.2,-2.3 2.8,-3.3 0,0 -2.8,-3.3 -7.2,-2.3 -4.5,-6 -7.2,-9.7 -2.8,-8.7"/>
    <polygon transform="translate(40,192)" points="0,-12 2.8,-8.7 7.2,-9.7 4.5,-6 7.2,-2.3 2.8,-3.3 0,0 -2.8,-3.3 -7.2,-2.3 -4.5,-6 -7.2,-9.7 -2.8,-8.7"/>
    <polygon transform="translate(120,192)"points="0,-12 2.8,-8.7 7.2,-9.7 4.5,-6 7.2,-2.3 2.8,-3.3 0,0 -2.8,-3.3 -7.2,-2.3 -4.5,-6 -7.2,-9.7 -2.8,-8.7"/>
    <polygon transform="translate(200,192)"points="0,-12 2.8,-8.7 7.2,-9.7 4.5,-6 7.2,-2.3 2.8,-3.3 0,0 -2.8,-3.3 -7.2,-2.3 -4.5,-6 -7.2,-9.7 -2.8,-8.7"/>
    <polygon transform="translate(280,192)"points="0,-12 2.8,-8.7 7.2,-9.7 4.5,-6 7.2,-2.3 2.8,-3.3 0,0 -2.8,-3.3 -7.2,-2.3 -4.5,-6 -7.2,-9.7 -2.8,-8.7"/>
    <polygon transform="translate(80,232)" points="0,-12 2.8,-8.7 7.2,-9.7 4.5,-6 7.2,-2.3 2.8,-3.3 0,0 -2.8,-3.3 -7.2,-2.3 -4.5,-6 -7.2,-9.7 -2.8,-8.7"/>
    <polygon transform="translate(160,232)"points="0,-12 2.8,-8.7 7.2,-9.7 4.5,-6 7.2,-2.3 2.8,-3.3 0,0 -2.8,-3.3 -7.2,-2.3 -4.5,-6 -7.2,-9.7 -2.8,-8.7"/>
    <polygon transform="translate(240,232)"points="0,-12 2.8,-8.7 7.2,-9.7 4.5,-6 7.2,-2.3 2.8,-3.3 0,0 -2.8,-3.3 -7.2,-2.3 -4.5,-6 -7.2,-9.7 -2.8,-8.7"/>
    <polygon transform="translate(320,232)"points="0,-12 2.8,-8.7 7.2,-9.7 4.5,-6 7.2,-2.3 2.8,-3.3 0,0 -2.8,-3.3 -7.2,-2.3 -4.5,-6 -7.2,-9.7 -2.8,-8.7"/>
    <polygon transform="translate(40,272)" points="0,-12 2.8,-8.7 7.2,-9.7 4.5,-6 7.2,-2.3 2.8,-3.3 0,0 -2.8,-3.3 -7.2,-2.3 -4.5,-6 -7.2,-9.7 -2.8,-8.7"/>
    <polygon transform="translate(120,272)"points="0,-12 2.8,-8.7 7.2,-9.7 4.5,-6 7.2,-2.3 2.8,-3.3 0,0 -2.8,-3.3 -7.2,-2.3 -4.5,-6 -7.2,-9.7 -2.8,-8.7"/>
    <polygon transform="translate(200,272)"points="0,-12 2.8,-8.7 7.2,-9.7 4.5,-6 7.2,-2.3 2.8,-3.3 0,0 -2.8,-3.3 -7.2,-2.3 -4.5,-6 -7.2,-9.7 -2.8,-8.7"/>
    <polygon transform="translate(280,272)"points="0,-12 2.8,-8.7 7.2,-9.7 4.5,-6 7.2,-2.3 2.8,-3.3 0,0 -2.8,-3.3 -7.2,-2.3 -4.5,-6 -7.2,-9.7 -2.8,-8.7"/>
  </g>
</svg>
