<svg viewBox="0 0 900 600" xmlns="http://www.w3.org/2000/svg">
  <rect width="900" height="200" fill="#FCD116"/>
  <rect y="200" width="900" height="200" fill="#003893"/>
  <rect y="400" width="900" height="200" fill="#CF1020"/>
  <!-- 8 white stars in arc in blue band -->
  <g fill="#FFFFFF">
    <polygon transform="translate(340,300)" points="0,-18 4.2,-12.9 13.6,-12.9 6.9,-4.9 9.4,5 0,-1.8 -9.4,5 -6.9,-4.9 -13.6,-12.9 -4.2,-12.9"/>
    <polygon transform="translate(390,278)" points="0,-18 4.2,-12.9 13.6,-12.9 6.9,-4.9 9.4,5 0,-1.8 -9.4,5 -6.9,-4.9 -13.6,-12.9 -4.2,-12.9"/>
    <polygon transform="translate(440,268)" points="0,-18 4.2,-12.9 13.6,-12.9 6.9,-4.9 9.4,5 0,-1.8 -9.4,5 -6.9,-4.9 -13.6,-12.9 -4.2,-12.9"/>
    <polygon transform="translate(490,270)" points="0,-18 4.2,-12.9 13.6,-12.9 6.9,-4.9 9.4,5 0,-1.8 -9.4,5 -6.9,-4.9 -13.6,-12.9 -4.2,-12.9"/>
    <polygon transform="translate(540,282)" points="0,-18 4.2,-12.9 13.6,-12.9 6.9,-4.9 9.4,5 0,-1.8 -9.4,5 -6.9,-4.9 -13.6,-12.9 -4.2,-12.9"/>
    <polygon transform="translate(560,300)" points="0,-18 4.2,-12.9 13.6,-12.9 6.9,-4.9 9.4,5 0,-1.8 -9.4,5 -6.9,-4.9 -13.6,-12.9 -4.2,-12.9"/>
    <polygon transform="translate(360,320)" points="0,-18 4.2,-12.9 13.6,-12.9 6.9,-4.9 9.4,5 0,-1.8 -9.4,5 -6.9,-4.9 -13.6,-12.9 -4.2,-12.9"/>
    <polygon transform="translate(420,320)" points="0,-18 4.2,-12.9 13.6,-12.9 6.9,-4.9 9.4,5 0,-1.8 -9.4,5 -6.9,-4.9 -13.6,-12.9 -4.2,-12.9"/>
  </g>
</svg>
