<svg viewBox="0 0 900 600" xmlns="http://www.w3.org/2000/svg">
  <rect width="900" height="600" fill="#009C3B"/>
  <!-- Yellow diamond -->
  <polygon fill="#FFDF00" points="450,60 840,300 450,540 60,300"/>
  <!-- Blue circle -->
  <circle cx="450" cy="300" r="140" fill="#002776"/>
  <!-- White band across circle -->
  <path d="M310,255 Q450,215 590,255" stroke="#FFFFFF" stroke-width="28" fill="none"/>
  <!-- Stars (simplified - just a few representative ones) -->
  <g fill="#FFFFFF">
    <polygon transform="translate(360,278)" points="0,-8 1.9,-5.8 4.8,-6.5 3,-3.7 4.8,-0.9 1.9,-1.9 0,0.9 -1.9,-1.9 -4.8,-0.9 -3,-3.7 -4.8,-6.5 -1.9,-5.8"/>
    <polygon transform="translate(400,258)" points="0,-8 1.9,-5.8 4.8,-6.5 3,-3.7 4.8,-0.9 1.9,-1.9 0,0.9 -1.9,-1.9 -4.8,-0.9 -3,-3.7 -4.8,-6.5 -1.9,-5.8"/>
    <polygon transform="translate(450,248)" points="0,-10 2.4,-7.3 6,-8.1 3.8,-4.6 6,-1.1 2.4,-2.4 0,1.1 -2.4,-2.4 -6,-1.1 -3.8,-4.6 -6,-8.1 -2.4,-7.3"/>
    <polygon transform="translate(500,258)" points="0,-8 1.9,-5.8 4.8,-6.5 3,-3.7 4.8,-0.9 1.9,-1.9 0,0.9 -1.9,-1.9 -4.8,-0.9 -3,-3.7 -4.8,-6.5 -1.9,-5.8"/>
    <polygon transform="translate(540,278)" points="0,-8 1.9,-5.8 4.8,-6.5 3,-3.7 4.8,-0.9 1.9,-1.9 0,0.9 -1.9,-1.9 -4.8,-0.9 -3,-3.7 -4.8,-6.5 -1.9,-5.8"/>
    <polygon transform="translate(420,300)" points="0,-8 1.9,-5.8 4.8,-6.5 3,-3.7 4.8,-0.9 1.9,-1.9 0,0.9 -1.9,-1.9 -4.8,-0.9 -3,-3.7 -4.8,-6.5 -1.9,-5.8"/>
    <polygon transform="translate(480,300)" points="0,-8 1.9,-5.8 4.8,-6.5 3,-3.7 4.8,-0.9 1.9,-1.9 0,0.9 -1.9,-1.9 -4.8,-0.9 -3,-3.7 -4.8,-6.5 -1.9,-5.8"/>
  </g>
</svg>
