<svg width="900" height="600" viewBox="0 0 900 600" xmlns="http://www.w3.org/2000/svg">
  <!-- Blue top stripe -->
  <rect width="900" height="190" fill="#1EB53A"/>
  <!-- Wait, Uzbekistan is light-blue top, white middle, green bottom -->
  <!-- Light blue top -->
  <rect width="900" height="190" fill="#1BBED6"/>
  <!-- Thin red border -->
  <rect y="190" width="900" height="10" fill="#CE1126"/>
  <!-- White middle -->
  <rect y="200" width="900" height="200" fill="#FFFFFF"/>
  <!-- Thin red border -->
  <rect y="400" width="900" height="10" fill="#CE1126"/>
  <!-- Green bottom -->
  <rect y="410" width="900" height="190" fill="#1EB53A"/>
  <!-- White crescent in blue -->
  <circle cx="140" cy="95" r="55" fill="#FFFFFF"/>
  <circle cx="168" cy="82" r="44" fill="#1BBED6"/>
  <!-- 12 white stars in blue stripe -->
  <g fill="#FFFFFF">
    <polygon transform="translate(260,60)" points="0,-14 3.3,-10.2 12.4,-10.2 6.3,-3.9 8.5,5.1 0,-2.9 -8.5,5.1 -6.3,-3.9 -12.4,-10.2 -3.3,-10.2"/>
    <polygon transform="translate(300,60)" points="0,-14 3.3,-10.2 12.4,-10.2 6.3,-3.9 8.5,5.1 0,-2.9 -8.5,5.1 -6.3,-3.9 -12.4,-10.2 -3.3,-10.2"/>
    <polygon transform="translate(340,60)" points="0,-14 3.3,-10.2 12.4,-10.2 6.3,-3.9 8.5,5.1 0,-2.9 -8.5,5.1 -6.3,-3.9 -12.4,-10.2 -3.3,-10.2"/>
    <polygon transform="translate(380,60)" points="0,-14 3.3,-10.2 12.4,-10.2 6.3,-3.9 8.5,5.1 0,-2.9 -8.5,5.1 -6.3,-3.9 -12.4,-10.2 -3.3,-10.2"/>
    <polygon transform="translate(420,60)" points="0,-14 3.3,-10.2 12.4,-10.2 6.3,-3.9 8.5,5.1 0,-2.9 -8.5,5.1 -6.3,-3.9 -12.4,-10.2 -3.3,-10.2"/>
    <polygon transform="translate(460,60)" points="0,-14 3.3,-10.2 12.4,-10.2 6.3,-3.9 8.5,5.1 0,-2.9 -8.5,5.1 -6.3,-3.9 -12.4,-10.2 -3.3,-10.2"/>
    <polygon transform="translate(500,60)" points="0,-14 3.3,-10.2 12.4,-10.2 6.3,-3.9 8.5,5.1 0,-2.9 -8.5,5.1 -6.3,-3.9 -12.4,-10.2 -3.3,-10.2"/>
    <polygon transform="translate(260,100)" points="0,-14 3.3,-10.2 12.4,-10.2 6.3,-3.9 8.5,5.1 0,-2.9 -8.5,5.1 -6.3,-3.9 -12.4,-10.2 -3.3,-10.2"/>
    <polygon transform="translate(300,100)" points="0,-14 3.3,-10.2 12.4,-10.2 6.3,-3.9 8.5,5.1 0,-2.9 -8.5,5.1 -6.3,-3.9 -12.4,-10.2 -3.3,-10.2"/>
    <polygon transform="translate(340,100)" points="0,-14 3.3,-10.2 12.4,-10.2 6.3,-3.9 8.5,5.1 0,-2.9 -8.5,5.1 -6.3,-3.9 -12.4,-10.2 -3.3,-10.2"/>
    <polygon transform="translate(380,100)" points="0,-14 3.3,-10.2 12.4,-10.2 6.3,-3.9 8.5,5.1 0,-2.9 -8.5,5.1 -6.3,-3.9 -12.4,-10.2 -3.3,-10.2"/>
    <polygon transform="translate(420,100)" points="0,-14 3.3,-10.2 12.4,-10.2 6.3,-3.9 8.5,5.1 0,-2.9 -8.5,5.1 -6.3,-3.9 -12.4,-10.2 -3.3,-10.2"/>
  </g>
</svg>
