<svg viewBox="0 0 900 600" xmlns="http://www.w3.org/2000/svg">
  <rect width="900" height="200" fill="#12AD2B"/>
  <rect y="200" width="900" height="200" fill="#FFCE00"/>
  <rect y="400" width="900" height="200" fill="#12AD2B"/>
  <!-- Black left triangle -->
  <polygon fill="#000000" points="0,0 260,300 0,600"/>
  <!-- Red small triangle on left edge -->
  <polygon fill="#D21034" points="0,240 70,300 0,360"/>
  <!-- 2 black 5-pointed stars in yellow band -->
  <polygon fill="#000000" transform="translate(420,300)"
    points="0,-50 11.8,-36.3 44.7,-36.3 21.4,-13.8 30.9,19 0,-10.5 -30.9,19 -21.4,-13.8 -44.7,-36.3 -11.8,-36.3"/>
  <polygon fill="#000000" transform="translate(590,300)"
    points="0,-50 11.8,-36.3 44.7,-36.3 21.4,-13.8 30.9,19 0,-10.5 -30.9,19 -21.4,-13.8 -44.7,-36.3 -11.8,-36.3"/>
</svg>
