<svg viewBox="0 0 84 110" xmlns="http://www.w3.org/2000/svg" width="84" height="110"><path d="M44 95 L38 90 L32 84 L27 76 L23 67 L20 57 L19 47 L20 37 L23 27 L28 18 L34 11 L40 6" stroke="#6d28d9" stroke-width="2.2" fill="none" stroke-linecap="round"/><g fill="#7c3aed" opacity="0.92"><path d="M42 92 Q44.1 97.6 58.9 85.8 Q39.9 86.4 42 92Z"/><path d="M36 87 Q39.0 92.2 51.6 78.0 Q33.0 81.8 36 87Z"/><path d="M30 81 Q34.0 85.5 43.4 69.0 Q26.0 76.5 30 81Z"/><path d="M25 73 Q29.9 76.4 35.3 58.3 Q20.1 69.6 25 73Z"/><path d="M21 63 Q26.6 65.2 27.7 46.3 Q15.4 60.8 21 63Z"/><path d="M19 52 Q24.9 53.0 22.1 34.3 Q13.1 51.0 19 52Z"/><path d="M19 41 Q25.0 41.0 19.0 23.0 Q13.0 41.0 19 41Z"/><path d="M21 30 Q26.9 29.0 17.9 12.3 Q15.1 31.0 21 30Z"/><path d="M25 20 Q30.6 17.8 18.3 3.3 Q19.4 22.2 25 20Z"/><path d="M30 12 Q34.9 8.6 19.7 -2.7 Q25.1 15.4 30 12Z"/><path d="M36 6 Q40.0 1.5 22.6 -6.0 Q32.0 10.5 36 6Z"/><path d="M42 2 Q45.0 -3.2 26.4 -7.0 Q39.0 7.2 42 2Z"/></g><g fill="#a855f7" opacity="0.75"><path d="M42 92 Q43.2 95.3 53.3 87.9 Q40.8 88.7 42 92Z"/><path d="M36 87 Q37.8 90.0 46.4 81.0 Q34.2 84.0 36 87Z"/><path d="M30 81 Q32.3 83.6 38.9 73.0 Q27.7 78.4 30 81Z"/><path d="M25 73 Q27.9 75.0 31.9 63.2 Q22.1 71.0 25 73Z"/><path d="M21 63 Q24.2 64.3 25.5 51.9 Q17.8 61.7 21 63Z"/><path d="M19 52 Q22.4 52.6 21.1 40.2 Q15.6 51.4 19 52Z"/><path d="M19 41 Q22.5 41.0 19.0 29.0 Q15.5 41.0 19 41Z"/><path d="M21 30 Q24.4 29.4 18.9 18.2 Q17.6 30.6 21 30Z"/><path d="M25 20 Q28.2 18.7 20.5 8.9 Q21.8 21.3 25 20Z"/><path d="M30 12 Q32.9 10.0 23.1 2.2 Q27.1 14.0 30 12Z"/><path d="M36 6 Q38.3 3.4 27.1 -2.0 Q33.7 8.6 36 6Z"/><path d="M42 2 Q43.8 -1.0 31.6 -4.0 Q40.2 5.0 42 2Z"/></g></svg>