<svg viewBox="0 0 84 92" xmlns="http://www.w3.org/2000/svg" width="84" height="92"><path d="M34.5 76.1 L27.9 73.6 L22.1 69.7 L17.2 64.7 L13.7 58.6 L11.6 51.9 L11.0 44.9 L12.1 38.0 L14.6 31.4 L18.6 25.7 L23.8 20.9 L29.9 17.5 L36.6 15.5 " stroke="#9a7620" stroke-width="2.0" fill="none" stroke-linecap="round"/><g fill="#b8922a" opacity="0.90"><path d="M35.0 74.3 Q28.1 80.9 31.5 88.2 Q37.8 83.4 35.0 74.3Z"/><path d="M28.8 72.0 Q20.6 76.9 22.3 84.8 Q29.5 81.5 28.8 72.0Z"/><path d="M23.3 68.3 Q14.2 71.3 14.0 79.3 Q21.9 77.7 23.3 68.3Z"/><path d="M18.7 63.5 Q9.2 64.4 7.3 72.2 Q15.3 72.4 18.7 63.5Z"/><path d="M15.4 57.8 Q5.9 56.6 2.3 63.7 Q10.0 65.7 15.4 57.8Z"/><path d="M13.4 51.6 Q4.5 48.2 -0.7 54.3 Q6.4 58.0 13.4 51.6Z"/><path d="M12.9 45.0 Q4.9 39.7 -1.5 44.5 Q4.6 49.7 12.9 45.0Z"/><path d="M13.9 38.5 Q7.3 31.5 -0.0 34.7 Q4.7 41.2 13.9 38.5Z"/><path d="M16.3 32.3 Q11.5 24.1 3.6 25.6 Q6.8 32.9 16.3 32.3Z"/><path d="M20.0 26.9 Q17.2 17.8 9.2 17.5 Q10.6 25.3 20.0 26.9Z"/><path d="M24.9 22.4 Q24.2 12.9 16.4 10.8 Q16.1 18.8 24.9 22.4Z"/><path d="M30.6 19.2 Q32.0 9.8 25.0 6.0 Q22.8 13.7 30.6 19.2Z"/><path d="M36.9 17.3 Q40.5 8.4 34.4 3.2 Q30.6 10.2 36.9 17.3Z"/></g><g fill="#d4ac3a" opacity="0.80"><path d="M34.7 75.1 Q31.2 78.6 32.9 82.4 Q36.2 79.9 34.7 75.1Z"/><path d="M28.4 72.8 Q24.1 75.3 25.0 79.4 Q28.8 77.7 28.4 72.8Z"/><path d="M22.7 69.0 Q18.0 70.6 17.9 74.7 Q22.0 73.9 22.7 69.0Z"/><path d="M18.0 64.1 Q13.1 64.5 12.1 68.6 Q16.2 68.7 18.0 64.1Z"/><path d="M14.6 58.2 Q9.7 57.6 7.7 61.3 Q11.8 62.3 14.6 58.2Z"/><path d="M12.5 51.7 Q7.9 50.0 5.2 53.2 Q8.9 55.1 12.5 51.7Z"/><path d="M12.0 45.0 Q7.9 42.2 4.5 44.7 Q7.7 47.4 12.0 45.0Z"/><path d="M13.0 38.2 Q9.6 34.6 5.8 36.3 Q8.2 39.6 13.0 38.2Z"/><path d="M15.5 31.9 Q13.0 27.6 8.9 28.4 Q10.5 32.2 15.5 31.9Z"/><path d="M19.3 26.3 Q17.9 21.6 13.7 21.4 Q14.4 25.5 19.3 26.3Z"/><path d="M24.4 21.7 Q24.0 16.8 20.0 15.7 Q19.8 19.8 24.4 21.7Z"/><path d="M30.3 18.4 Q31.0 13.5 27.3 11.5 Q26.2 15.5 30.3 18.4Z"/><path d="M36.8 16.4 Q38.6 11.8 35.5 9.1 Q33.5 12.7 36.8 16.4Z"/></g></svg>