<svg viewBox="0 0 60 110" xmlns="http://www.w3.org/2000/svg" width="60" height="110">
<defs>
  <linearGradient id="g1" x1="0%" y1="100%" x2="100%" y2="0%">
    <stop offset="0%" stop-color="#4c1d95"/>
    <stop offset="55%" stop-color="#7c3aed"/>
    <stop offset="100%" stop-color="#a855f7"/>
  </linearGradient>
  <linearGradient id="g2" x1="0%" y1="0%" x2="100%" y2="100%">
    <stop offset="0%" stop-color="#c084fc"/>
    <stop offset="100%" stop-color="#e9d5ff"/>
  </linearGradient>
  <filter id="glow" x="-20%" y="-20%" width="140%" height="140%">
    <feGaussianBlur stdDeviation="1.8" result="b"/>
    <feMerge><feMergeNode in="b"/><feMergeNode in="SourceGraphic"/></feMerge>
  </filter>
</defs>
<g filter="url(#glow)">
<path d="M 0,0 C 4.0,-3.3 5.2,-8.8 0,-18.4 C -5.2,-8.8 -4.0,-3.3 0,0 Z" transform="translate(42.1,103.6) rotate(33.8)" fill="url(#g1)" opacity="0.93"/>
<path d="M 0,0 C 4.7,-3.9 6.2,-10.4 0,-21.7 C -6.2,-10.4 -4.7,-3.9 0,0 Z" transform="translate(32.3,94.9) rotate(49.5)" fill="url(#g1)" opacity="0.93"/>
<path d="M 0,0 C 5.3,-4.4 6.9,-11.7 0,-24.4 C -6.9,-11.7 -5.3,-4.4 0,0 Z" transform="translate(24.9,83.8) rotate(63.2)" fill="url(#g1)" opacity="0.93"/>
<path d="M 0,0 C 5.7,-4.7 7.4,-12.6 0,-26.2 C -7.4,-12.6 -5.7,-4.7 0,0 Z" transform="translate(20.2,71.1) rotate(75.8)" fill="url(#g1)" opacity="0.93"/>
<path d="M 0,0 C 5.9,-4.8 7.6,-12.9 0,-26.8 C -7.6,-12.9 -5.9,-4.8 0,0 Z" transform="translate(18.2,57.5) rotate(87.9)" fill="url(#g1)" opacity="0.93"/>
<path d="M 0,0 C 5.7,-4.7 7.4,-12.6 0,-26.2 C -7.4,-12.6 -5.7,-4.7 0,0 Z" transform="translate(19.2,43.7) rotate(100.4)" fill="url(#g1)" opacity="0.93"/>
<path d="M 0,0 C 5.3,-4.4 6.9,-11.7 0,-24.4 C -6.9,-11.7 -5.3,-4.4 0,0 Z" transform="translate(23.3,30.6) rotate(114.2)" fill="url(#g1)" opacity="0.93"/>
<path d="M 0,0 C 4.7,-3.9 6.2,-10.4 0,-21.7 C -6.2,-10.4 -4.7,-3.9 0,0 Z" transform="translate(30.6,18.7) rotate(129.4)" fill="url(#g1)" opacity="0.93"/>
<path d="M 0,0 C 4.0,-3.3 5.2,-8.8 0,-18.4 C -5.2,-8.8 -4.0,-3.3 0,0 Z" transform="translate(41.4,8.8) rotate(145.6)" fill="url(#g1)" opacity="0.93"/>
<path d="M 0,0 C 2.5,-2.1 3.2,-5.5 0,-11.4 C -3.2,-5.5 -2.5,-2.1 0,0 Z" transform="translate(42.1,103.6) rotate(33.8)" fill="url(#g2)" opacity="0.45"/>
<path d="M 0,0 C 2.9,-2.4 3.8,-6.5 0,-13.4 C -3.8,-6.5 -2.9,-2.4 0,0 Z" transform="translate(32.3,94.9) rotate(49.5)" fill="url(#g2)" opacity="0.45"/>
<path d="M 0,0 C 3.3,-2.7 4.3,-7.3 0,-15.1 C -4.3,-7.3 -3.3,-2.7 0,0 Z" transform="translate(24.9,83.8) rotate(63.2)" fill="url(#g2)" opacity="0.45"/>
<path d="M 0,0 C 3.5,-2.9 4.6,-7.8 0,-16.3 C -4.6,-7.8 -3.5,-2.9 0,0 Z" transform="translate(20.2,71.1) rotate(75.8)" fill="url(#g2)" opacity="0.45"/>
<path d="M 0,0 C 3.6,-3.0 4.7,-8.0 0,-16.6 C -4.7,-8.0 -3.6,-3.0 0,0 Z" transform="translate(18.2,57.5) rotate(87.9)" fill="url(#g2)" opacity="0.45"/>
<path d="M 0,0 C 3.5,-2.9 4.6,-7.8 0,-16.3 C -4.6,-7.8 -3.5,-2.9 0,0 Z" transform="translate(19.2,43.7) rotate(100.4)" fill="url(#g2)" opacity="0.45"/>
<path d="M 0,0 C 3.3,-2.7 4.3,-7.3 0,-15.1 C -4.3,-7.3 -3.3,-2.7 0,0 Z" transform="translate(23.3,30.6) rotate(114.2)" fill="url(#g2)" opacity="0.45"/>
<path d="M 0,0 C 2.9,-2.4 3.8,-6.5 0,-13.4 C -3.8,-6.5 -2.9,-2.4 0,0 Z" transform="translate(30.6,18.7) rotate(129.4)" fill="url(#g2)" opacity="0.45"/>
<path d="M 0,0 C 2.5,-2.1 3.2,-5.5 0,-11.4 C -3.2,-5.5 -2.5,-2.1 0,0 Z" transform="translate(41.4,8.8) rotate(145.6)" fill="url(#g2)" opacity="0.45"/>
  <path d="M46,106 C12,88 6,28 46,6" stroke="#7c3aed" stroke-width="1.4" fill="none"
        stroke-linecap="round" opacity="0.55"/>
</g>
</svg>