<svg viewBox="0 0 72 110" xmlns="http://www.w3.org/2000/svg" width="72" height="110"><path d="M40.0 102.0 L35.9 94.2 L32.0 86.3 L28.7 78.5 L26.1 70.7 L24.5 62.8 L24.0 55.0 L24.5 47.2 L26.1 39.3 L28.7 31.5 L32.0 23.7 L35.9 15.8 L40.0 8.0" stroke="#6d28d9" stroke-width="1.8" fill="none" stroke-linecap="round"/><g><path d="M40.0 102.0 Q43.2 105.8 29.3 111.0 Q36.8 98.2 40.0 102.0Z" fill="#7c3aed" opacity="0.92"/><path d="M35.9 94.2 Q38.6 98.3 23.5 102.3 Q33.1 90.0 35.9 94.2Z" fill="#7c3aed" opacity="0.92"/><path d="M32.0 86.3 Q34.2 90.8 18.1 93.3 Q29.8 81.9 32.0 86.3Z" fill="#7c3aed" opacity="0.92"/><path d="M28.7 78.5 Q30.4 83.2 13.5 84.0 Q27.0 73.8 28.7 78.5Z" fill="#7c3aed" opacity="0.92"/><path d="M26.1 70.7 Q27.3 75.5 10.0 74.5 Q25.0 65.8 26.1 70.7Z" fill="#7c3aed" opacity="0.92"/><path d="M24.5 62.8 Q25.1 67.8 7.8 64.8 Q24.0 57.9 24.5 62.8Z" fill="#7c3aed" opacity="0.92"/><path d="M24.0 55.0 Q24.0 60.0 7.0 55.0 Q24.0 50.0 24.0 55.0Z" fill="#7c3aed" opacity="0.92"/><path d="M24.5 47.2 Q24.0 52.1 7.8 45.2 Q25.1 42.2 24.5 47.2Z" fill="#7c3aed" opacity="0.92"/><path d="M26.1 39.3 Q25.0 44.2 10.0 35.5 Q27.3 34.5 26.1 39.3Z" fill="#7c3aed" opacity="0.92"/><path d="M28.7 31.5 Q27.0 36.2 13.5 26.0 Q30.4 26.8 28.7 31.5Z" fill="#7c3aed" opacity="0.92"/><path d="M32.0 23.7 Q29.8 28.1 18.1 16.7 Q34.2 19.2 32.0 23.7Z" fill="#7c3aed" opacity="0.92"/><path d="M35.9 15.8 Q33.1 20.0 23.5 7.7 Q38.6 11.7 35.9 15.8Z" fill="#7c3aed" opacity="0.92"/><path d="M40.0 8.0 Q36.8 11.8 29.3 -1.0 Q43.2 4.2 40.0 8.0Z" fill="#7c3aed" opacity="0.92"/></g><g><path d="M40.0 102.0 Q41.9 104.3 33.1 107.8 Q38.1 99.7 40.0 102.0Z" fill="#c084fc" opacity="0.65"/><path d="M35.9 94.2 Q37.5 96.7 27.9 99.4 Q34.2 91.7 35.9 94.2Z" fill="#c084fc" opacity="0.65"/><path d="M32.0 86.3 Q33.3 89.0 23.1 90.8 Q30.7 83.7 32.0 86.3Z" fill="#c084fc" opacity="0.65"/><path d="M28.7 78.5 Q29.7 81.3 18.9 82.1 Q27.7 75.7 28.7 78.5Z" fill="#c084fc" opacity="0.65"/><path d="M26.1 70.7 Q26.8 73.6 15.7 73.1 Q25.5 67.7 26.1 70.7Z" fill="#c084fc" opacity="0.65"/><path d="M24.5 62.8 Q24.9 65.8 13.7 64.1 Q24.2 59.9 24.5 62.8Z" fill="#c084fc" opacity="0.65"/><path d="M24.0 55.0 Q24.0 58.0 13.0 55.0 Q24.0 52.0 24.0 55.0Z" fill="#c084fc" opacity="0.65"/><path d="M24.5 47.2 Q24.2 50.1 13.7 45.9 Q24.9 44.2 24.5 47.2Z" fill="#c084fc" opacity="0.65"/><path d="M26.1 39.3 Q25.5 42.3 15.7 36.9 Q26.8 36.4 26.1 39.3Z" fill="#c084fc" opacity="0.65"/><path d="M28.7 31.5 Q27.7 34.3 18.9 27.9 Q29.7 28.7 28.7 31.5Z" fill="#c084fc" opacity="0.65"/><path d="M32.0 23.7 Q30.7 26.3 23.1 19.2 Q33.3 21.0 32.0 23.7Z" fill="#c084fc" opacity="0.65"/><path d="M35.9 15.8 Q34.2 18.3 27.9 10.6 Q37.5 13.3 35.9 15.8Z" fill="#c084fc" opacity="0.65"/><path d="M40.0 8.0 Q38.1 10.3 33.1 2.2 Q41.9 5.7 40.0 8.0Z" fill="#c084fc" opacity="0.65"/></g></svg>