<svg viewBox="0 0 70 120" xmlns="http://www.w3.org/2000/svg" width="70" height="120"><defs>
  <linearGradient id="lg" x1="0%" y1="0%" x2="100%" y2="0%">
    <stop offset="0%" stop-color="#6d28d9"/>
    <stop offset="100%" stop-color="#a855f7"/>
  </linearGradient>
  <filter id="glow" x="-30%" y="-30%" width="160%" height="160%">
    <feGaussianBlur stdDeviation="2.5" result="blur"/>
    <feMerge><feMergeNode in="blur"/><feMergeNode in="SourceGraphic"/></feMerge>
  </filter>
</defs><g filter="url(#glow)"><g><path d="M38.0,115.0 Q47.3,113.0 50.8,100.7 Q38.9,105.5 38.0,115.0Z" fill="#6d28d9" opacity="0.95"/><path d="M28.8,104.1 Q40.1,104.8 48.1,91.7 Q32.9,93.6 28.8,104.1Z" fill="#6d28d9" opacity="0.95"/><path d="M22.2,90.8 Q34.6,94.3 46.6,81.8 Q29.4,80.1 22.2,90.8Z" fill="#6d28d9" opacity="0.95"/><path d="M18.3,75.8 Q30.7,82.0 46.0,71.1 Q28.0,65.9 18.3,75.8Z" fill="#6d28d9" opacity="0.95"/><path d="M17.0,60.0 Q28.5,68.4 45.8,60.0 Q28.5,51.6 17.0,60.0Z" fill="#6d28d9" opacity="0.95"/><path d="M18.3,44.2 Q28.0,54.1 46.0,48.9 Q30.7,38.0 18.3,44.2Z" fill="#6d28d9" opacity="0.95"/><path d="M22.2,29.2 Q29.4,39.9 46.6,38.2 Q34.6,25.7 22.2,29.2Z" fill="#6d28d9" opacity="0.95"/><path d="M28.8,15.9 Q32.9,26.4 48.1,28.3 Q40.1,15.2 28.8,15.9Z" fill="#6d28d9" opacity="0.95"/><path d="M38.0,5.0 Q38.9,14.5 50.8,19.3 Q47.3,7.0 38.0,5.0Z" fill="#6d28d9" opacity="0.95"/></g><g><path d="M38.0,115.0 Q43.7,113.7 46.0,106.0 Q38.7,109.2 38.0,115.0Z" fill="#c084fc" opacity="0.55"/><path d="M28.8,104.1 Q35.8,104.4 40.8,96.4 Q31.5,97.7 28.8,104.1Z" fill="#c084fc" opacity="0.55"/><path d="M22.2,90.8 Q29.9,92.8 37.5,85.2 Q26.8,84.3 22.2,90.8Z" fill="#c084fc" opacity="0.55"/><path d="M18.3,75.8 Q26.1,79.5 35.6,72.9 Q24.4,69.8 18.3,75.8Z" fill="#c084fc" opacity="0.55"/><path d="M17.0,60.0 Q24.2,65.0 35.0,60.0 Q24.2,55.0 17.0,60.0Z" fill="#c084fc" opacity="0.55"/><path d="M18.3,44.2 Q24.4,50.2 35.6,47.1 Q26.1,40.5 18.3,44.2Z" fill="#c084fc" opacity="0.55"/><path d="M22.2,29.2 Q26.8,35.7 37.5,34.8 Q29.9,27.2 22.2,29.2Z" fill="#c084fc" opacity="0.55"/><path d="M28.8,15.9 Q31.5,22.3 40.8,23.6 Q35.8,15.6 28.8,15.9Z" fill="#c084fc" opacity="0.55"/><path d="M38.0,5.0 Q38.7,10.8 46.0,14.0 Q43.7,6.3 38.0,5.0Z" fill="#c084fc" opacity="0.55"/></g><path d="M38,115 C10,90 10,30 38,5" stroke="#7c3aed" stroke-width="1.8" fill="none" stroke-linecap="round" opacity="0.7"/></g></svg>