<svg viewBox="0 0 70 115" xmlns="http://www.w3.org/2000/svg" width="70" height="115">
<defs>
  <linearGradient id="gLeaf" x1="0%" y1="100%" x2="100%" y2="0%">
    <stop offset="0%"   stop-color="#5b21b6"/>
    <stop offset="50%"  stop-color="#7b2fff"/>
    <stop offset="100%" stop-color="#c86bff"/>
  </linearGradient>
  <linearGradient id="gHi" x1="0%" y1="0%" x2="100%" y2="0%">
    <stop offset="0%"   stop-color="#ddd6fe"/>
    <stop offset="100%" stop-color="#f5f3ff"/>
  </linearGradient>
  <filter id="glow" x="-20%" y="-10%" width="140%" height="120%">
    <feGaussianBlur stdDeviation="1.2" result="b"/>
    <feMerge><feMergeNode in="b"/><feMergeNode in="SourceGraphic"/></feMerge>
  </filter>
</defs>
<g filter="url(#glow)" opacity="0.82">
<ellipse cx="30.5" cy="101.4" rx="3.5" ry="8.4" transform="rotate(-129.0,30.5,101.4)" fill="url(#gLeaf)" opacity="0.88"/><ellipse cx="30.5" cy="101.4" rx="1.9" ry="4.6" transform="rotate(-129.0,30.5,101.4)" fill="url(#gHi)" opacity="0.35"/><ellipse cx="26.5" cy="91.1" rx="4.3" ry="10.3" transform="rotate(-113.6,26.5,91.1)" fill="url(#gLeaf)" opacity="0.88"/><ellipse cx="26.5" cy="91.1" rx="2.4" ry="5.6" transform="rotate(-113.6,26.5,91.1)" fill="url(#gHi)" opacity="0.35"/><ellipse cx="23.9" cy="78.5" rx="4.9" ry="11.6" transform="rotate(-102.7,23.9,78.5)" fill="url(#gLeaf)" opacity="0.88"/><ellipse cx="23.9" cy="78.5" rx="2.7" ry="6.4" transform="rotate(-102.7,23.9,78.5)" fill="url(#gHi)" opacity="0.35"/><ellipse cx="22.7" cy="64.4" rx="5.2" ry="12.4" transform="rotate(-94.0,22.7,64.4)" fill="url(#gLeaf)" opacity="0.88"/><ellipse cx="22.7" cy="64.4" rx="2.9" ry="6.8" transform="rotate(-94.0,22.7,64.4)" fill="url(#gHi)" opacity="0.35"/><ellipse cx="22.7" cy="49.9" rx="5.2" ry="12.4" transform="rotate(-86.0,22.7,49.9)" fill="url(#gLeaf)" opacity="0.88"/><ellipse cx="22.7" cy="49.9" rx="2.9" ry="6.8" transform="rotate(-86.0,22.7,49.9)" fill="url(#gHi)" opacity="0.35"/><ellipse cx="23.9" cy="35.9" rx="4.9" ry="11.6" transform="rotate(-77.2,23.9,35.9)" fill="url(#gLeaf)" opacity="0.88"/><ellipse cx="23.9" cy="35.9" rx="2.7" ry="6.4" transform="rotate(-77.2,23.9,35.9)" fill="url(#gHi)" opacity="0.35"/><ellipse cx="26.5" cy="23.5" rx="4.3" ry="10.3" transform="rotate(-66.0,26.5,23.5)" fill="url(#gLeaf)" opacity="0.88"/><ellipse cx="26.5" cy="23.5" rx="2.4" ry="5.6" transform="rotate(-66.0,26.5,23.5)" fill="url(#gHi)" opacity="0.35"/><ellipse cx="30.4" cy="13.5" rx="3.5" ry="8.4" transform="rotate(-50.0,30.4,13.5)" fill="url(#gLeaf)" opacity="0.88"/><ellipse cx="30.4" cy="13.5" rx="1.9" ry="4.6" transform="rotate(-50.0,30.4,13.5)" fill="url(#gHi)" opacity="0.35"/>
  <path d="M28,111 C4,90 4,24 28,4" stroke="#9333ea" stroke-width="1.3" fill="none"
        stroke-linecap="round" opacity="0.45"/>
</g>
</svg>